<svg width="153" height="132" viewBox="0 0 153 132" fill="none" xmlns="http://www.w3.org/2000/svg">
    <path
        d="M15.2637 126.224L20.6162 126.218V132H17.6875C13.0212 131.543 8.92079 129.394 5.85352 126.224H7.72949L11.499 122.145L15.2637 126.224ZM42.1963 130.579L40.8818 132H25.2744L23.9531 130.581V126.226H27.9053L33.0918 131.803L38.2549 126.227L42.1963 126.222V130.579ZM58.4268 126.222L63.7822 126.217V132H45.5352L45.5303 126.222H50.9121L54.6631 122.145L58.4268 126.222ZM71.0752 126.222L76.2529 131.796L81.4355 126.222H85.3594L85.3613 130.574L84.0469 132H68.4561L67.1367 130.577V126.222H71.0752ZM101.59 126.22L106.942 126.215V132H88.7178L88.7129 126.218H94.0762L97.8262 122.143L101.59 126.22ZM128.522 130.574L127.209 132H111.626L110.3 130.575L110.295 126.222H114.254L119.414 131.796L124.599 126.222L128.522 126.217V130.574ZM144.753 126.22L146.524 126.218C143.483 129.316 139.434 131.433 134.796 132H131.881L131.875 126.22H137.239L140.989 122.143L144.753 126.22ZM36.8447 102.914L42.1963 102.909V108.704L46.0186 112.794L42.1963 116.927L42.2021 122.716H36.8379L33.0879 126.791L29.3223 122.714L23.9512 122.719V116.922L20.1426 112.801L23.9531 108.701L23.9482 102.914H29.3291L33.0811 98.8369L36.8447 102.914ZM80.0107 102.913L85.3633 102.905V108.701L89.1738 112.791L85.3633 116.924L85.3682 122.712H80.0039L76.2529 126.79L72.4893 122.712L67.1367 122.717V116.918L63.3115 112.8L67.1367 108.697L67.1318 102.913H72.4941L76.2461 98.835L80.0107 102.913ZM123.173 102.911L128.526 102.905V108.699L132.335 112.791L128.526 116.924L128.531 122.712H123.167L119.416 126.79L115.652 122.712L110.3 122.717V116.918L106.489 112.798L110.3 108.694L110.295 102.911H115.657L119.409 98.833L123.173 102.911ZM20.6123 107.267L15.4932 112.8L20.6143 118.358L20.6191 122.716H16.6758L11.502 117.136L6.31445 122.716L3.13672 122.72C2.86531 122.278 2.61018 121.825 2.37207 121.362V118.361L7.49121 112.789L2.37207 107.269L2.36719 102.913H6.3125L11.5068 108.487L16.6709 102.914L20.6123 102.909V107.267ZM150.104 107.263L145.003 112.798L150.104 118.356L150.106 121.244C149.849 121.746 149.573 122.237 149.276 122.714H146.185L140.989 117.133L135.841 122.714L131.881 122.719V118.361L137.021 112.789V112.785L131.881 107.265L131.875 102.911H135.836L140.994 108.487L146.179 102.911L150.104 102.905V107.263ZM63.7773 107.263L58.6582 112.796L63.7773 118.354V122.714L59.8379 122.716L54.6582 117.138L49.4922 122.714H45.5342L45.5322 118.361L50.6738 112.789V112.787L45.5342 107.267V102.911L49.4922 102.909L54.6719 108.485L59.8359 102.911L63.7773 102.905V107.263ZM106.94 107.262L101.841 112.794L106.94 118.354L106.945 122.71H103.021L97.8281 117.131L92.6396 122.71L88.7158 122.716V118.356L93.8154 112.784L93.8174 112.785L88.7178 107.265L88.7129 102.911L92.6367 102.907L97.8369 108.483L103.016 102.909L106.94 102.904V107.262ZM2.84082 112.794L0.388672 115.453C0.239591 114.596 0.143271 113.724 0.104492 112.841V109.854L2.84082 112.794ZM152.396 111.749C152.393 112.995 152.281 114.22 152.069 115.412L149.654 112.8L152.396 109.845V111.749ZM15.2637 79.5654L20.6143 79.5605V85.3574L24.4258 89.4805L20.6143 93.6143L20.6191 99.4043H15.2568L11.5039 103.449L7.71973 99.4033L2.36914 99.4082V93.6113L0.104492 91.1602V87.8105L2.36914 85.3545L2.36426 79.5654H7.72656L11.4971 75.5176L15.2637 79.5654ZM45.5273 79.9932C50.0729 81.5586 54.7276 82.771 59.376 83.5635C59.9963 87.2776 61.8131 90.5233 64.3574 92.9834L63.7754 93.6133L63.7803 99.4014H58.4238L54.6719 103.448L50.9053 99.4014L45.5342 99.4062V93.6113L41.7217 89.4883L45.5342 85.3525L45.5273 79.9932ZM106.938 85.3555L110.751 89.4785L106.938 93.6143L106.943 99.4014H101.587L97.833 103.446L94.0664 99.3994L88.7158 99.4043V93.6074L88.1904 93.0391C90.7952 90.5018 92.6155 87.1684 93.0947 83.5459C97.5919 82.8087 102.27 81.6232 106.938 80.0195V85.3555ZM144.757 79.5625L150.108 79.5566V85.3555L152.396 87.8066V91.1514L150.108 93.6113L150.113 99.3994H144.75L140.996 103.446L137.232 99.3994H131.883V93.6074L128.07 89.4854L131.883 85.3486L131.877 79.5625H137.239L140.991 75.5156L144.757 79.5625ZM42.1934 83.9541L37.0723 89.4883L42.1934 95.0107L42.2002 99.4014L38.2568 99.4043L33.0771 93.7871L27.9053 99.4033H23.9531L23.9512 95.0146L29.0928 89.4785L23.9531 83.9561V79.5635H27.9014L33.0879 85.1797L38.2529 79.5654L42.1934 79.5605V83.9541ZM67.1367 95.1758C68.8651 96.2777 70.7854 97.0793 72.8066 97.5186L71.0771 99.3994L67.1367 99.4043V95.1758ZM85.3613 99.4014H81.4424L79.7412 97.5645C80.1088 97.4893 80.4767 97.4029 80.8438 97.3018C82.4401 96.8623 83.9629 96.1719 85.3613 95.2812V99.4014ZM128.521 83.9502L123.419 89.4854L128.521 95.0059V99.3975L124.602 99.3994L119.401 93.7822L114.255 99.3975H110.297V95.0098L115.435 89.4736L110.298 83.9541L110.293 79.5625H114.25L119.412 85.1758L124.599 79.5625L128.521 79.5566V83.9502ZM115.435 89.4736L115.438 89.4766L115.437 89.4727L115.435 89.4736ZM20.9775 67.0801C23.3281 68.9039 25.7793 70.566 28.2832 72.0449C30.9412 73.6139 33.7128 75.0672 36.5645 76.3867L33.0879 80.1367L29.3203 76.0908L23.9512 76.0957V70.2988L20.9775 67.0801ZM128.524 70.2988L128.529 76.0889H123.169L119.416 80.1357L115.932 76.3906C121.501 73.7916 126.872 70.5938 131.704 66.8486L128.524 70.2988ZM150.105 60.6221L145.005 66.1758L150.105 71.6953V76.0889L146.186 76.0908L140.986 70.4727L135.84 76.0889L131.883 76.0938V71.7002L137.023 66.166L135.076 64.0664C136.552 62.7685 137.962 61.4142 139.296 60.0049L140.998 61.8447L146.181 56.2686L150.105 56.2637V60.6221ZM11.5068 61.8467L13.2129 60.0049C14.5447 61.4361 15.9458 62.805 17.4033 64.1064L15.4922 66.1797L20.6123 71.7002L20.6182 76.0918H16.6748L11.4951 70.4785L6.31055 76.0918H2.36914L2.36719 71.7021L7.49023 66.168L2.36914 60.6279L2.36426 56.2725H6.30859L6.31055 56.2705L11.5068 61.8467ZM152.396 69.1436L149.651 66.1748L152.396 63.208V69.1436ZM2.8418 66.1709L0.104492 69.1416V63.2207L2.8418 66.1709ZM1.5918 40.3018C2.89224 44.7322 4.9177 48.9033 7.47168 52.7568L2.37207 52.7646V46.9658L0.104492 44.5225V41.1846L1.43555 39.7402C1.48567 39.9272 1.53696 40.1145 1.5918 40.3018ZM152.396 41.1895V44.5195L150.105 46.9707L150.11 52.7588H145.102C147.334 49.4091 149.139 45.8263 150.401 42.0234L151.006 39.7012L152.396 41.1895Z"
        fill="#3399CC" />
    <mask id="mask0_1081_3521" style="mask-type:alpha" maskUnits="userSpaceOnUse" x="47" y="0" width="58" height="25">
        <path
            d="M47.9173 23.8627L47.915 24.1947H56.3239V15.8944C56.3239 13.1364 60.1 9.2784 62.9155 8.98402C70.7223 8.87999 79.4299 8.16062 87.2101 8.69184C91.1766 8.96188 96.1657 11.8947 96.1657 16.337V24.1947H104.577V15.009C104.577 13.6699 103.37 10.394 102.7 9.13896C99.5788 3.29992 93.8659 0.632734 87.2101 0.280798C80.5543 -0.0711381 71.4726 -0.115407 64.8367 0.280798C58.9689 0.63052 53.4176 3.18704 50.2591 8.27572C49.522 9.46212 47.9173 13.2825 47.9173 14.5663V23.8627Z"
            fill="black" />
    </mask>
    <g mask="url(#mask0_1081_3521)">
        <path
            d="M47.9173 23.8627L47.915 24.1947H56.3239V15.8944C56.3239 13.1364 60.1 9.2784 62.9155 8.98402C70.7223 8.87999 79.4299 8.16062 87.2101 8.69184C91.1766 8.96188 96.1657 11.8947 96.1657 16.337V24.1947H104.577V15.009C104.577 13.6699 103.37 10.394 102.7 9.13896C99.5788 3.29992 93.8659 0.632734 87.2101 0.280798C80.5543 -0.0711381 71.4726 -0.115407 64.8367 0.280798C58.9689 0.63052 53.4176 3.18704 50.2591 8.27572C49.522 9.46212 47.9173 13.2825 47.9173 14.5663V23.8627Z"
            fill="#034667" />
    </g>
    <path
        d="M106.939 60.6211L101.84 66.1748L106.939 71.6953L106.941 73.2402C105.27 73.8906 103.616 74.4719 101.998 74.9834L97.8271 70.4697L93.667 74.9736C93.8004 73.0631 93.8569 71.0593 93.7412 69.2295C93.6802 68.2584 93.5545 67.4136 93.3262 66.6934L93.8135 66.166H93.8174L88.7168 60.626L88.7119 56.2686H92.6357L97.833 61.8418L103.016 56.2666L106.939 56.2617V60.6211ZM63.7764 60.624L58.6582 66.1777L59.0527 66.6035C58.8961 66.9811 58.7598 67.356 58.7598 67.4697V74.9199L54.6592 70.4766L50.5586 74.9336C48.8797 74.4109 47.2024 73.8377 45.5352 73.2139V71.7041L50.6748 66.1689L45.5352 60.6279V56.2705L49.4922 56.2686L54.6719 61.8467L59.835 56.2705L63.7764 56.2656V60.624ZM36.8428 56.2705L42.1963 56.2656V62.0654L46.0166 66.1689L42.1943 70.3037L42.1953 71.8896C35.6776 69.1539 29.4138 65.6176 23.9521 61.2393L23.9473 56.2725H29.3271L33.0791 52.1924L36.8428 56.2705ZM123.172 56.2686L128.525 56.2617V60.999C122.911 65.4526 116.555 69.1094 110.3 71.8506V70.2969L106.487 66.1748L110.3 62.0566V56.2686H115.658L119.408 52.1914L123.172 56.2686ZM80.0127 56.2705L85.3643 56.2637V62.0625L86.8691 63.6836C80.0266 63.9305 72.6447 63.1229 65.8535 63.4395L67.1387 62.0586L67.1328 56.2705H72.4951L76.2471 52.1914L80.0127 56.2705ZM20.6123 58.3574C19.8819 57.6792 19.1706 56.9837 18.4795 56.2705L20.6123 56.2686V58.3574ZM133.88 56.2686C133.231 56.9112 132.563 57.5392 131.882 58.1562V56.2686H133.88ZM58.4268 32.9561L63.7803 32.9492V38.7324L67.6064 42.8535L63.7783 46.9707L63.7842 52.7607H58.4209L54.6699 56.8232L50.9043 52.7607L45.5312 52.7676V46.9688L41.7217 42.8652L45.5312 38.7305L45.5264 32.958L45.5283 32.9561H50.9092L54.6611 28.8799L58.4268 32.9561ZM101.59 32.9531L106.939 32.9473V38.7324L110.752 42.8535L106.939 46.9707L106.945 52.7588H101.583L97.8311 56.8213L94.0654 52.7588L88.7158 52.7646V46.9658L84.9053 42.8623L88.7158 38.7275L88.71 32.9531H94.0742L97.8262 28.8799L101.59 32.9531ZM85.3574 37.3115L80.2578 42.8652H80.2588L85.3594 48.3857V52.7607L81.4385 52.7627L76.2402 47.166L71.0762 52.7607L67.1348 52.7656V48.3896L72.2559 42.8555L67.1348 37.3154V32.9541L71.0732 32.9512L76.25 38.5342L81.4336 32.9531L85.3574 32.9473V37.3115ZM128.522 37.3115L123.422 42.8652L128.522 48.3857V52.7607H124.602L119.403 47.1641L114.257 52.7588L110.3 52.7656V48.3877L115.438 42.8535L110.3 37.3135L110.294 32.9531L114.253 32.9492L119.413 38.5342L124.598 32.9512L128.522 32.9463V37.3115ZM144.753 32.9531L146.45 32.9512C145.518 40.3206 142.048 46.9725 137.133 52.7588L131.88 52.7656V46.9668L128.068 42.8633L131.88 38.7295L131.875 32.9531H137.237L140.989 28.8799L144.753 32.9531ZM42.1943 37.3135L37.0742 42.8672H37.0752L42.1943 48.3877V52.7627L38.2568 52.7646L33.0771 47.167L27.9062 52.7627H23.9531V48.3936L29.0908 42.8584L23.9531 37.3174V32.958H27.9043L33.0869 38.5361L38.2529 32.958L42.1943 32.9531V37.3135ZM15.2617 32.9561L20.6133 32.9512V38.7324L24.4238 42.8535L20.6133 46.9707L20.6191 52.7588H15.3633C12.7829 49.5712 10.5955 46.0803 8.91992 42.2744C7.81519 39.7669 6.66099 36.2807 6.10352 32.9561H7.72754L11.4961 28.8799L15.2617 32.9561ZM42.1953 26.4082L42.1992 29.4531H36.8369L33.0859 33.5156L29.3203 29.4531L23.9512 29.459V26.4082H42.1953ZM85.3633 26.4082L85.3662 29.4482H80.0059L76.2539 33.5088L72.4883 29.4463L67.1367 29.4521V26.4082H85.3633ZM128.524 26.4082L128.527 29.4463H123.165L119.412 33.5088L115.646 29.4463L110.296 29.4531V26.4082H128.524ZM95.4609 26.4082L92.6416 29.4502H88.7168V26.4082H95.4609ZM106.943 26.4082L106.946 29.4502H103.022L100.196 26.4082H106.943ZM9.13184 26.4082L6.31543 29.4482H5.76465C5.75597 28.7354 5.7907 28.0538 5.88086 27.418C5.93619 27.0307 6.17543 26.4083 6.63574 26.4082H9.13184ZM20.6143 26.4082L20.6191 29.4482H16.6758L13.8623 26.4082H20.6143ZM63.7783 26.4082V29.4482H59.8389L57.0254 26.4082H63.7783ZM145.856 26.4082C146.511 26.4083 146.658 28.1031 146.672 29.4482H146.184L143.36 26.4082H145.856ZM52.2988 26.4082L49.4941 29.4463H45.5352V26.4082H52.2988ZM138.635 26.4082L135.841 29.4463H131.882V26.4082H138.635Z"
        fill="#3399CC" />
    <path
        d="M86.6471 70.2339V81.4117C86.6471 89.5439 76.379 94.2917 69.9401 89.265C67.8838 87.658 65.8408 84.0457 65.8408 81.4117V70.2339H86.6471Z"
        fill="#034667" />
</svg>