<svg width="300" height="300" viewBox="0 0 300 300" fill="none" xmlns="http://www.w3.org/2000/svg">
<rect width="300" height="300" rx="36" fill="#063B6F"/>
<mask id="mask0_177_284" style="mask-type:alpha" maskUnits="userSpaceOnUse" x="103" y="42" width="94" height="40">
<path d="M103.489 81.2289L103.485 81.7747H117.289V68.1294C117.289 63.5955 123.488 57.2531 128.11 56.7692C140.925 56.5982 155.22 55.4156 167.992 56.2889C174.503 56.7328 182.693 61.5541 182.693 68.8571V81.7747H196.501V66.6739C196.501 64.4724 194.52 59.0871 193.419 57.0239C188.296 47.4249 178.918 43.0402 167.992 42.4616C157.066 41.8831 142.157 41.8103 131.264 42.4616C121.631 43.0365 112.518 47.2393 107.333 55.6048C106.123 57.5552 103.489 63.8356 103.489 65.9461V81.2289Z" fill="black"/>
</mask>
<g mask="url(#mask0_177_284)">
<path d="M103.489 81.2289L103.485 81.7747H117.289V68.1294C117.289 63.5955 123.488 57.2531 128.11 56.7692C140.925 56.5982 155.22 55.4156 167.992 56.2889C174.503 56.7328 182.693 61.5541 182.693 68.8571V81.7747H196.501V66.6739C196.501 64.4724 194.52 59.0871 193.419 57.0239C188.296 47.4249 178.918 43.0402 167.992 42.4616C157.066 41.8831 142.157 41.8103 131.264 42.4616C121.631 43.0365 112.518 47.2393 107.333 55.6048C106.123 57.5552 103.489 63.8356 103.489 65.9461V81.2289Z" fill="#EEAB20"/>
</g>
<path d="M58.8936 243.398L64.8135 243.392V249.806L69.0283 254.325L64.8135 258.899V259H53.8652C48.9696 258.52 44.4537 256.903 40.5166 254.439L40.4209 254.335L44.6348 249.8L44.6299 243.396H50.5605L54.7295 238.886L58.8936 243.398ZM88.6826 248.209L83.0215 254.329L87.3232 259H69.8623L74.167 254.316L68.5068 248.213L68.501 243.396H72.8643L78.6123 249.562L84.3232 243.396L88.6826 243.39V248.209ZM106.633 243.398L112.553 243.392V249.808L116.778 254.327L112.553 258.899V259H92.374V258.893L88.1602 254.335L92.374 249.8L92.3682 243.398H98.3145L102.468 238.886L106.633 243.398ZM136.426 248.207L130.764 254.327L135.068 259H117.612L121.931 254.318H121.933L116.247 248.211V243.394L120.626 243.392L126.354 249.56L132.066 243.394L136.426 243.388V248.207ZM154.38 243.392L160.299 243.384V249.8L164.514 254.319L160.299 258.891V259H140.142V258.883L135.91 254.327L140.142 249.794L140.134 243.392H146.067L150.215 238.882L154.38 243.392ZM184.167 248.205L178.526 254.325L182.816 259H165.363L169.651 254.315L164.012 248.209L164.006 243.392H168.346L174.094 249.556L179.826 243.392L184.167 243.386V248.205ZM202.122 243.392L208.042 243.386V249.802L212.255 254.321L208.042 258.893V259H187.885V258.885L183.67 254.329L187.885 249.794L187.879 243.392H193.811L197.96 238.882L202.122 243.392ZM231.908 248.207L226.267 254.327L230.556 259H213.117L217.438 254.318L211.752 248.209L211.746 243.394H216.127L221.835 249.562L227.567 243.394L231.908 243.388V248.207ZM249.861 243.392L255.817 243.386V249.802L259.783 254.052C255.784 256.639 251.16 258.381 246.109 259H235.624V258.887L231.411 254.329L235.624 249.794L235.618 243.392H241.549L245.698 238.882L249.861 243.392ZM74.167 254.316L74.1689 254.318V254.314L74.167 254.316ZM40.9404 243.396V248.209L37.3027 252.139C35.6236 250.772 34.0832 249.238 32.7031 247.565L36.5791 243.396H40.9404ZM263.868 243.394L267.4 247.211C266.036 248.888 264.51 250.428 262.843 251.808L259.493 248.209L259.487 243.394H263.868ZM35.0225 217.612L40.9424 217.607V224.023L45.1543 228.54L40.9404 233.113L40.9482 239.514H35.0166L30.8486 244.026L28.9814 242.004C26.6355 237.617 25.2265 232.668 25 227.503V217.61H26.6895L30.8389 213.101L35.0225 217.612ZM82.7676 217.61L88.6865 217.605V224.021L92.9014 228.538L88.6865 233.111L88.6924 239.512L88.6904 239.514H82.7598L78.6104 244.024L74.5352 239.626L74.2529 239.514L68.5088 239.522V233.108L64.2939 228.548L68.5088 224.015L68.5029 217.61H74.4336L78.6025 213.099L82.7676 217.61ZM130.508 217.609L136.432 217.603V224.015L140.663 228.534L136.432 233.106L136.438 239.51L136.434 239.512H130.502L126.354 244.021L122.192 239.51L116.247 239.516V233.106L112.035 228.546L116.249 224.013L116.244 217.609H122.196L126.346 213.099L130.508 217.609ZM178.249 217.607L184.169 217.602V224.015L188.383 228.534L184.169 233.106L184.175 239.51H178.241L174.094 244.021L169.931 239.508L164.012 239.514V233.102L159.799 228.544L164.012 224.009L164.006 217.605H169.938L174.086 213.097L178.249 217.607ZM273.73 217.61L275 217.609V225.709C274.989 232.229 273.164 238.388 269.957 243.607L269.577 244.021L265.415 239.51L259.495 239.516V233.104L255.28 228.546L259.495 224.013V217.61H265.421L269.568 213.101L273.73 217.61ZM225.99 217.607L231.909 217.602V224.017L236.158 228.534L231.909 233.106L231.915 239.51H225.982L221.835 244.019L217.672 239.508L211.752 239.514V233.102L207.538 228.544L211.752 224.011L211.746 217.607H217.68L221.827 213.097L225.99 217.607ZM112.557 222.428L106.895 228.548L112.557 234.696V239.516H108.2L102.472 233.349L96.7529 239.514L92.3799 239.52V234.7L98.0625 228.536L98.0605 228.534L92.3779 222.43V217.612H96.749L102.485 223.782L108.197 217.614L112.557 217.609V222.428ZM64.8135 222.426L59.1514 228.544L64.8135 234.693V239.512H60.458L54.7314 233.345L48.999 239.51L44.6367 239.516V234.696L50.3008 228.532L44.6387 222.428V217.61L48.9932 217.609L54.7422 223.776L60.4541 217.61L64.8135 217.605V222.426ZM255.813 222.421L250.133 228.542L255.813 234.691V239.51H251.44L245.689 233.345L240 239.51L235.622 239.516V234.696L241.305 228.53H241.307L235.622 222.425L235.616 217.609H239.997L245.704 223.775L251.437 217.609L255.813 217.603V222.421ZM144.498 217.609L150.225 223.775L155.957 217.609H160.297L160.299 222.423L154.656 228.542L160.297 234.691V239.508L155.961 239.512L150.211 233.345L144.499 239.51H140.14L140.138 234.694L145.804 228.53L140.142 222.426V217.609H144.498ZM208.038 222.423L202.399 228.542L208.04 234.689V239.51L203.703 239.512L197.954 233.343L192.264 239.508H187.883V234.694L193.565 228.53L187.883 222.425L187.877 217.609H192.256L197.964 223.775L203.698 217.609L208.038 217.603V222.423ZM58.8936 191.829L64.8135 191.823V198.232L69.0264 202.757L64.8115 207.33L64.8193 213.731H58.8877L54.7383 218.242L50.5547 213.733L44.6348 213.738V207.326L40.4229 202.769L44.6367 198.232L44.6299 191.831V191.829H50.5605L54.7295 187.318L58.8936 191.829ZM106.637 191.829L112.557 191.823V198.234L116.784 202.757L112.557 207.328L112.562 213.731H106.629L102.481 218.239L98.3164 213.729L92.376 213.734V207.322L88.1641 202.765L92.3779 198.23L92.3721 191.829H98.3242L102.474 187.319L106.637 191.829ZM164.516 202.753L160.301 207.324L160.307 213.727H154.374L150.225 218.237L146.062 213.727L140.142 213.733V207.318L135.91 202.763L138.261 200.241C144.085 202.99 150.861 203.801 157.541 201.959C159.127 201.522 160.669 200.933 162.148 200.213L164.516 202.753ZM202.12 191.825L208.042 191.82V198.228L212.255 202.753L208.042 207.324L208.048 213.727H202.115L197.965 218.237L193.803 213.727L187.883 213.733V207.318L183.668 202.761L187.883 198.223L187.877 191.825H193.809L197.958 187.316L202.12 191.825ZM249.861 191.825L255.817 191.82V198.219L260.035 202.753L255.817 207.326L255.823 213.727H249.855L245.706 218.237L241.543 213.727H235.624V207.32L231.411 202.763L235.624 198.223L235.618 191.825H241.551L245.698 187.316L249.861 191.825ZM88.6826 196.644L83.0215 202.763L88.6846 208.911L88.6904 213.731H84.3291L78.6064 207.56L72.8682 213.731L68.5088 213.736V208.915L74.1699 202.751L68.5088 196.646L68.5029 191.827H72.8662L78.6123 197.993L84.3232 191.829L88.6826 191.823V196.644ZM231.908 196.64L226.267 202.761L231.908 208.909L231.913 213.729H227.573L221.827 207.556L216.133 213.729L211.752 213.734V208.915L217.438 202.751V202.748L211.752 196.642L211.746 191.825H216.127L221.833 197.993L227.567 191.825L231.908 191.82V196.64ZM263.87 191.827L269.577 197.995L275 192.161V201.692L274.008 202.761L275 203.834V213.389L269.57 207.554L263.874 213.727L259.495 213.733V208.913L265.18 202.749L259.495 196.644L259.489 191.827H263.87ZM40.9404 196.644L35.2783 202.763L40.9404 208.911V213.731H36.585L30.8369 207.566L25.125 213.729H25V204.303L26.4277 202.749L25 201.21V191.827H25.1211L30.8486 197.993L36.5811 191.829L40.9404 191.823V196.644ZM126.354 197.991L129.843 194.225C131.354 195.782 133.036 197.163 134.851 198.341L130.764 202.759L136.426 208.907V213.729L132.068 213.731L126.34 207.562L120.626 213.729H116.247L116.246 208.915L121.933 202.751V202.749L116.247 196.644V191.825L120.626 191.823L126.354 197.991ZM184.167 196.638L178.526 202.757L184.167 208.905L184.173 213.725H179.832L174.088 207.554L168.35 213.725L164.01 213.731V208.909L169.65 202.746L169.652 202.748L165.518 198.272C167.312 197.067 168.973 195.659 170.456 194.085L174.098 197.989L179.826 191.823L184.167 191.818V196.638ZM35.0244 166.004L40.9404 165.999V172.41L45.1562 176.97L40.9404 181.545L40.9482 187.949H35.0186L30.8486 192.423L26.6816 187.947L25 187.948V166.004H26.6875L30.8389 161.528L35.0244 166.004ZM76.7402 163.523C80.6122 165.6 84.6051 167.526 88.6846 169.285V172.41L92.9014 176.97L88.6846 181.543L88.6904 187.947H82.7598L78.6084 192.421L74.4229 187.945L68.5049 187.951V181.539L64.29 176.98L68.5049 172.406L68.499 166.004H74.4297L76.7402 163.523ZM112.31 177.28C115.631 178.103 118.967 178.804 122.3 179.373C123.044 183.833 124.836 187.881 127.376 191.317L126.354 192.42L122.188 187.943L116.247 187.949V181.539L112.31 177.28ZM184.165 181.543L184.171 187.943H178.245L174.094 192.418L172.894 191.128C175.389 187.65 177.089 183.619 177.653 179.344C181.116 178.775 184.645 178.044 188.206 177.157L184.165 181.543ZM225.994 166L231.913 165.995V172.408L236.166 176.967L231.913 181.539L231.919 187.942H225.986L221.835 192.418L217.672 187.942H211.754V181.536L207.538 176.976L211.754 172.401L211.75 169.114C215.734 167.372 219.67 165.442 223.514 163.335L225.994 166ZM273.732 166L275 165.998V187.943H273.728L269.576 192.418L265.411 187.942L259.493 187.947V181.536L255.277 176.976L259.493 172.401V166H265.419L269.568 161.525L273.732 166ZM64.8115 170.859L59.1475 176.98L64.8115 183.088V187.947L60.4561 187.949L54.7256 181.738L48.9932 187.947H44.6338V183.092L50.2988 176.97L44.6348 170.862V166.004H48.9912V166.002L54.7402 172.214L60.4541 166.004L64.8115 165.999V170.859ZM255.815 170.853L250.133 176.974L255.815 183.082L255.821 187.94H251.444V187.943L245.696 181.725L239.999 187.942L235.622 187.949V183.088L241.307 176.965L235.622 170.857V165.999H239.997L245.706 172.21L251.44 166L255.815 165.995V170.853ZM92.3779 170.823C97.4036 172.84 102.542 174.599 107.733 176.066L106.889 176.98L112.553 183.088L112.561 187.943L108.199 187.947L102.47 181.734L96.749 187.945H92.3779L92.376 183.092L98.0625 176.969L92.3779 170.86V170.823ZM208.036 170.855L202.394 176.976L208.036 183.082V187.94L203.701 187.942L197.95 181.729L192.258 187.94H187.879V183.086L193.562 176.963L192.642 175.974C197.764 174.521 202.927 172.754 208.036 170.681V170.855ZM46.1377 140.238C51.7278 146.322 58.0888 151.726 64.8135 156.33L64.8193 162.164H58.8877L54.7363 166.64L50.5508 162.164L44.6338 162.17V155.758L40.4189 151.198L44.6338 146.645L44.6279 140.24L44.6299 140.238H46.1377ZM255.817 146.643L260.035 151.182L255.817 155.755L255.823 162.158H249.857L245.706 166.633L241.541 162.158L235.622 162.164V155.867C242.302 151.238 248.489 146.012 253.889 140.231L255.817 140.229V146.643ZM263.87 140.236L269.577 146.404L275 140.572V150.12L274.008 151.193L275 152.258V161.818L269.57 155.942L263.872 162.158L259.495 162.164V157.305L265.182 151.182L259.495 145.054L259.489 140.236H263.87ZM30.8496 146.406L36.583 140.242H40.9443V145.056L35.2783 151.198L40.9404 157.305L40.9463 162.162H36.585L30.835 155.953L25.123 162.162H25V152.733L26.4297 151.188L25 149.641V140.242H25.123L25.1211 140.238L30.8496 146.406ZM68.5029 158.755C69.4167 159.331 70.3357 159.892 71.2588 160.438C71.9483 160.845 72.6442 161.245 73.3428 161.643L72.8643 162.162H68.5049L68.5029 158.755ZM231.909 162.158L227.575 162.16L226.893 161.423C228.588 160.432 230.261 159.406 231.909 158.345V162.158ZM28.7393 112.228C31.5715 120.103 35.7847 127.436 40.9453 134.098L40.9482 136.359H35.0166L30.8486 140.852L26.6836 136.357L25 136.358V114.453H26.6914L28.7393 112.228ZM273.732 114.445L275 114.443V136.355H273.728L269.577 140.848L265.413 136.355L259.495 136.36V133.651C264.622 127.024 268.722 119.776 271.431 111.956L273.732 114.445ZM25.6484 100.458C26.21 103.032 26.6659 105.559 27.3994 108.105L25.125 110.569H25V101.159L25.6484 100.458ZM274.666 100.334L275 102.687V110.234L272.615 107.666L274.553 100.214L274.666 100.334Z" fill="white"/>
<path d="M121.289 168.744C119.613 168.38 117.929 167.983 116.24 167.557L116.24 166.004H121.289V168.744ZM184.165 167.561C182.234 167.991 180.283 168.3 178.332 168.377C178.407 167.603 178.474 166.809 178.535 166.002L184.165 165.997V167.561ZM189.905 166.001C189.233 166.205 188.556 166.406 187.875 166.602V166.001H189.905ZM112.553 166.579C111.874 166.391 111.195 166.199 110.516 166.001L112.553 165.999V166.579ZM106.635 140.238L112.556 140.232V146.648L116.782 151.188L112.555 155.76L112.562 162.161H106.631L104.747 164.192C100.589 162.801 96.4487 161.221 92.3762 159.447V155.755L88.1614 151.194L92.3782 146.641L92.3723 140.24H98.3225L102.472 135.729L106.635 140.238ZM202.12 140.236L208.042 140.229V146.643L212.256 151.182L208.04 155.755L208.043 159.156C203.87 161.069 199.708 162.737 195.651 164.146L193.801 162.159L187.883 162.164V155.753L183.666 151.193L187.883 146.639V140.236H193.81L197.957 135.727L202.12 140.236ZM121.87 151.255C121.574 151.948 121.289 152.705 121.289 152.916V161.442L120.628 162.162L116.249 162.168V157.309L121.87 151.255ZM184.167 145.05L178.526 151.193L184.167 157.299L184.172 162.159H179.832L178.794 161.036C178.837 159.255 178.82 157.487 178.714 155.809C178.354 150.078 176.653 147.017 170.534 146.533C168.9 146.645 167.242 146.712 165.567 146.745L164.011 145.056L164.006 140.236H168.346L174.094 146.4L179.826 140.234L184.167 140.229V145.05ZM88.6829 145.056L83.0198 151.198L88.6829 157.305V157.775C82.5201 154.881 76.5525 151.531 70.9602 147.714L68.5051 145.058L68.4993 140.24H72.8625L72.8645 140.238L78.6116 146.406L84.3235 140.242L88.6829 140.236V145.056ZM231.909 145.052L231.35 145.66C225.115 150.158 218.455 154.085 211.754 157.39V157.305L217.441 151.184L211.754 145.054V140.236H216.129L221.837 146.404L227.57 140.236L231.909 140.23V145.052ZM136.426 145.054L135.364 146.205C133.244 146.256 131.153 146.364 129.105 146.552C126.412 146.799 123.917 147.662 122.438 150.063C122.324 150.247 122.118 150.683 121.91 151.162L116.249 145.058V140.238L120.626 140.236L126.355 146.406L132.067 140.238L136.426 140.232V145.054ZM154.383 140.238L160.303 140.23V146.645L160.406 146.755C153.7 146.664 146.824 146.236 140.143 146.176L140.138 140.238H146.07L150.219 135.727L154.383 140.238ZM64.8137 143.2C63.5951 142.238 62.4 141.251 61.2307 140.238L64.8137 140.234V143.2ZM238.317 140.236C237.43 140.983 236.53 141.716 235.618 142.438L235.616 140.236H238.317ZM130.508 114.451L136.43 114.444V120.841L140.661 125.398L136.428 129.952L136.434 136.356H130.502L126.353 140.85L122.188 136.356L116.245 136.364V129.95L112.031 125.412L116.245 120.839L116.24 114.453L116.241 114.451H122.194L126.343 109.943L130.508 114.451ZM82.7649 114.451L88.6848 114.445V120.841L92.8997 125.398L88.6848 129.952L88.6907 136.354H82.76L78.6086 140.848L74.4241 136.353L68.509 136.36V129.946L64.2922 125.406L68.509 120.833L68.5012 114.451H74.4319L78.6008 109.943L82.7649 114.451ZM178.249 114.447L184.167 114.442V120.841L188.383 125.398L184.167 129.952L184.172 136.354H178.241L174.092 140.848L169.927 136.354L164.009 136.36V129.946L159.795 125.408L164.009 120.835L164.004 114.447H169.937L174.086 109.943L178.249 114.447ZM225.99 114.447L231.909 114.442V120.845L236.162 125.4L231.909 129.952L231.915 136.354H225.985L221.835 140.848L217.67 136.354L211.752 136.362V129.948L207.536 125.41L211.752 120.837L211.746 114.447H217.678L221.827 109.943L225.99 114.447ZM160.295 119.269L154.655 125.412H154.656L160.297 131.518V136.356L155.961 136.358L150.211 130.168L144.499 136.356L140.14 136.362V131.521L145.804 125.4L140.14 119.272V114.449L144.495 114.445L150.223 120.621L155.955 114.447L160.295 114.442V119.269ZM208.038 119.269L202.398 125.412L208.038 131.518V136.356H203.701L197.952 130.166L192.26 136.354L187.883 136.362V131.52L193.566 125.398L187.883 119.271L187.877 114.447L192.256 114.444L197.963 120.621L203.698 114.445L208.038 114.44V119.269ZM54.7424 120.623L60.4543 114.453H64.8137V119.272L59.1497 125.415L64.8137 131.521V136.36H60.4583L54.7288 130.174L52.9319 132.112C51.4718 130.487 50.0729 128.813 48.7463 127.083L50.301 125.404L44.6389 119.276V114.457L48.9944 114.455L48.9924 114.451L54.7424 120.623ZM112.555 119.271L106.891 125.414H106.893L112.555 131.52V136.358L108.198 136.36L102.47 130.17L96.7512 136.358H92.3782V131.525L98.0608 125.404L92.3782 119.274V114.453H96.7493L102.482 120.623L108.195 114.453L112.555 114.447V119.271ZM255.816 119.269L250.136 125.412L251.489 126.866C250.138 128.555 248.712 130.201 247.22 131.803L245.697 130.16L240 136.354L235.622 136.36V131.521L241.307 125.4L235.622 119.272V114.449L239.998 114.445L245.706 120.623L251.441 114.449L255.816 114.444V119.269ZM103.631 85.4131L106.635 88.6533L112.555 88.6475V95.0615L116.782 99.6191L112.553 104.173L112.56 110.577H106.629L102.48 115.07L98.3147 110.577L92.3762 110.583V104.169L88.1614 99.6309L92.3762 95.0576L92.3704 88.6533H98.3206L101.313 85.4131H103.631ZM55.8928 85.4131L58.8938 88.6514L64.8137 88.6455V95.0576L69.0276 99.6152L64.8118 104.169L64.8176 110.571H58.886L54.7346 115.066L50.551 110.571L44.6311 110.577V104.165L40.4172 99.627L44.6331 95.0518L44.6272 88.6514H50.5608L53.5637 85.4131H55.8928ZM246.863 85.4131L249.865 88.6514L255.82 88.6455V95.0596L260.037 99.6172L255.82 104.171L255.825 110.573L255.823 110.571H249.858L245.708 115.064L241.543 110.571L235.623 110.577V104.163L231.409 99.625L235.623 95.0518L235.618 88.6514H241.549L244.539 85.4131H246.863ZM151.38 85.4131L154.379 88.6494L160.299 88.6416V95.0557L164.516 99.6133L160.299 104.167L160.305 110.571H154.376L150.226 115.062L146.062 110.569L140.142 110.575V104.159L135.908 99.6211L140.142 95.0479L140.136 88.6494H146.066L149.054 85.4131H151.38ZM199.12 85.4131L202.12 88.6494L208.038 88.6416V95.0557L212.252 99.6133L208.038 104.167L208.044 110.569H202.113L197.961 115.062L193.797 110.569L187.879 110.577V104.163L183.662 99.625L187.879 95.0518L187.873 88.6514L187.875 88.6494H193.806L196.794 85.4131H199.12ZM40.9417 114.63C40.911 114.568 40.8794 114.507 40.8489 114.445H40.9417V114.63ZM259.488 114.56V114.445H259.545C259.526 114.483 259.507 114.522 259.488 114.56ZM264.554 100.286C263.819 103.825 262.731 107.256 261.336 110.572L259.493 110.575V105.735L264.554 100.286ZM184.169 93.4863L178.528 99.627L184.169 105.733L184.174 110.573H179.834L174.086 104.387L168.352 110.573H164.011V105.738L169.655 99.6191L164.013 93.4912L164.008 88.6514H168.348L174.096 94.8379L179.83 88.6514L184.169 88.6455V93.4863ZM88.6848 93.4844L83.0227 99.627L83.0208 99.6289L88.6829 105.735L88.6907 110.571H84.3293L78.6028 104.383L72.8704 110.571H68.509V105.737L74.1721 99.6152L68.509 93.4883L68.5032 88.6494H72.8645L78.6135 94.8359L84.3254 88.6494L88.6848 88.6436V93.4844ZM136.43 93.4824L130.766 99.625L130.764 99.627L136.428 105.733V110.571H132.071L126.341 104.381L120.628 110.569H116.249V105.737L121.936 99.6152L116.251 93.4863V88.6475L120.628 88.6455L126.357 94.8359L132.071 88.6475L136.43 88.6416V93.4824ZM231.909 93.4844L226.269 99.627L231.909 105.733V110.571H227.573L221.823 104.381L216.133 110.569H211.754V105.737L217.441 99.6152L211.754 93.4863L211.748 88.6494H216.129L221.837 94.8379L227.572 88.6494L231.909 88.6436V93.4844ZM40.9417 105.733L40.9475 110.569H39.0754C37.8112 107.55 36.5447 103.821 35.6321 100.009L40.9417 105.733ZM40.9417 93.4844L35.4885 99.3984C34.8426 96.5756 34.4031 93.7261 34.3088 91.1035L36.5823 88.6494L40.9417 88.6436V93.4844ZM263.868 88.6475L265.611 90.5371C265.618 91.5991 265.576 92.5109 265.553 92.8877C265.42 95.0182 265.154 97.1136 264.772 99.1738L259.493 93.4844L259.488 88.6475H263.868ZM82.1829 85.4131L78.6086 89.2832L75.0042 85.4131H82.1829ZM129.919 85.4131L126.349 89.2793L122.768 85.4131H129.919ZM177.662 85.4131L174.092 89.2793L170.51 85.4131H177.662ZM225.406 85.4131L221.833 89.2793L218.252 85.4131H225.406Z" fill="white"/>
<path d="M167.069 157.461V175.836C167.069 189.205 150.213 197.01 139.643 188.747C136.267 186.105 132.913 180.166 132.913 175.836V157.461H167.069Z" fill="#EEAB20"/>
</svg>
